<?xml version="1.0" encoding="UTF-8" standalone="no"?>
<svg width="201px" height="60px" viewBox="0 0 201 60" version="1.1" xmlns="http://www.w3.org/2000/svg" xmlns:xlink="http://www.w3.org/1999/xlink">
    <!-- Generator: Sketch 45.2 (43514) - http://www.bohemiancoding.com/sketch -->
    <title>GS_ID_Lockup</title>
    <desc>Created with Sketch.</desc>
    <defs>
        <polygon id="path-1" points="0.0003 60.000212 60.0003 60.000212 60.0003 0.0002 0.0003 0.0002 0.0003 60.000212"></polygon>
    </defs>
    <g id="Profile" stroke="none" stroke-width="1" fill="none" fill-rule="evenodd">
        <g id="View-Profile---cards---wide" transform="translate(-30.000000, -30.000000)">
            <g id="GS_ID_Lockup" transform="translate(30.000000, 30.000000)">
                <g id="G-Monogram-Redraw---yellow">
                    <g id="Page-1">
                        <mask id="mask-2" fill="white">
                            <use xlink:href="#path-1"></use>
                        </mask>
                        <g id="Clip-2"></g>
                        <path d="M59.40366,24.02144 L48.3327,24.02144 L46.30962,24.02144 L46.27758,24.02144 L46.27758,24.06416 L46.27746,24.06416 L46.27758,24.02144 L34.27758,36.02144 L46.24494,36.02144 L46.34874,36.02144 C43.91886,42.70232 37.5129,47.47424 29.99214,47.47424 C20.38242,47.47424 12.59202,39.68384 12.59202,30.07424 C12.59202,20.4644 20.38242,12.67412 29.99214,12.67412 C37.46574,12.67412 43.83786,17.38628 46.30194,24.00128 L55.73214,14.5712 C50.48658,5.84168 40.92618,0.0002 30.0003,0.0002 C13.43166,0.0002 0.0003,13.43156 0.0003,30.0002 C0.0003,46.56872 13.43166,60.0002 30.0003,60.0002 C46.5687,60.0002 60.0003,46.56872 60.0003,30.0002 C60.0003,27.95276 59.7945,25.95356 59.40366,24.02144" id="Fill-1" fill="#F3E100" mask="url(#mask-2)"></path>
                    </g>
                </g>
                <path d="M86.7422121,23.878998 C83.0872115,23.878998 80.4607111,26.4544984 80.4607111,30.049999 C80.4607111,33.8919997 83.3847115,36.2125 86.6827121,36.2125 C90.0572126,36.2125 92.496713,33.6709996 92.496713,30.066999 C92.496713,29.845999 92.488213,29.624999 92.462713,29.3954989 L86.9887121,29.3954989 L86.9887121,31.3759992 L90.0147126,31.3759992 C89.7002126,33.0674995 88.5697124,34.0024997 86.6317121,34.0024997 C84.5747117,34.0024997 82.9172115,32.4809994 82.9172115,30.049999 C82.9172115,27.7294986 84.4982117,26.1314984 86.6742121,26.1314984 C87.8897123,26.1314984 88.8757124,26.6074985 89.5472126,27.3809986 L91.2557128,25.7064983 C90.2017127,24.5589981 88.6292124,23.878998 86.7422121,23.878998 Z M102.135712,24.099998 L106.768213,36 L104.235212,36 L103.198212,33.2289995 L98.1237115,33.2289995 L97.0867113,36 L94.6132109,36 L99.2457117,24.099998 L102.135712,24.099998 Z M100.665212,26.4459984 L98.9397116,31.0444992 L102.382212,31.0444992 L100.665212,26.4459984 Z M123.130713,24.099998 L119.654213,24.099998 L116.568712,32.1324994 L113.474712,24.099998 L109.998211,24.099998 L109.998211,36 L112.369711,36 L112.369711,27.0834985 L115.310712,34.8524998 L117.818212,34.8524998 L120.759213,27.0154985 L120.759213,36 L123.130713,36 L123.130713,24.099998 Z M136.424712,33.8239996 L129.905211,33.8239996 L129.905211,31.0869992 L136.059212,31.0869992 L136.059212,28.9109988 L129.905211,28.9109988 L129.905211,26.2759984 L136.356712,26.2759984 L136.356712,24.099998 L127.533711,24.099998 L127.533711,36 L136.424712,36 L136.424712,33.8239996 Z M149.727212,25.1624982 C148.231212,24.2699981 146.845712,23.895998 145.179712,23.895998 C142.646711,23.895998 140.436711,25.1879982 140.436711,27.6699986 C140.436711,29.820499 141.966711,30.7469991 144.066211,31.0784992 L144.822712,31.1974992 C146.480212,31.4609993 147.347212,31.7669993 147.347212,32.5914994 C147.347212,33.5094996 146.327212,34.0279997 145.009712,34.0279997 C143.479711,34.0279997 142.077211,33.4329996 141.218711,32.7444995 L139.986211,34.6569998 C141.261211,35.6854999 143.199211,36.2125 145.001212,36.2125 C147.559712,36.2125 149.871712,34.9629998 149.871712,32.3364994 C149.871712,30.2624991 148.205712,29.3529989 146.080712,29.0044989 L145.409212,28.8939988 C143.981211,28.6559988 142.952711,28.3924988 142.952711,27.5169986 C142.952711,26.6159985 143.896211,26.0889984 145.230712,26.0889984 C146.531212,26.0889984 147.670212,26.5224984 148.605212,27.1004985 L149.727212,25.1624982 Z M166.863213,24.099998 L163.386712,24.099998 L160.301212,32.1324994 L157.207211,24.099998 L153.730711,24.099998 L153.730711,36 L156.102211,36 L156.102211,27.0834985 L159.043212,34.8524998 L161.550712,34.8524998 L164.491713,27.0154985 L164.491713,36 L166.863213,36 L166.863213,24.099998 Z M173.637711,24.099998 L171.266211,24.099998 L171.266211,36 L173.637711,36 L173.637711,24.099998 Z M186.710712,24.099998 L176.96121,24.099998 L176.96121,26.3184984 L180.650211,26.3184984 L180.650211,36 L183.021711,36 L183.021711,26.3184984 L186.710712,26.3184984 L186.710712,24.099998 Z M192.405711,24.099998 L190.034211,24.099998 L190.034211,36 L192.405711,36 L192.405711,31.1039992 L198.134712,31.1039992 L198.134712,36 L200.506212,36 L200.506212,24.099998 L198.134712,24.099998 L198.134712,28.8939988 L192.405711,28.8939988 L192.405711,24.099998 Z" id="GAMESMITH" fill="#FFFFFF"></path>
            </g>
        </g>
    </g>
</svg>