<?xml version="1.0" encoding="utf-8"?>
<!-- Generator: Adobe Illustrator 23.0.0, SVG Export Plug-In . SVG Version: 6.00 Build 0)  -->
<svg version="1.1" id="Layer_1" xmlns="http://www.w3.org/2000/svg" xmlns:xlink="http://www.w3.org/1999/xlink" x="0px" y="0px"
	 viewBox="0 0 201 60" style="enable-background:new 0 0 201 60;" xml:space="preserve">
<style type="text/css">
	.st0{filter:url(#Adobe_OpacityMaskFilter);}
	.st1{fill-rule:evenodd;clip-rule:evenodd;fill:#FFFFFF;}
	.st2{mask:url(#mask-2_1_);fill-rule:evenodd;clip-rule:evenodd;fill:#F3E100;}
	.st3{fill-rule:evenodd;clip-rule:evenodd;}
</style>
<title>GS_ID_Lockup</title>
<desc>Created with Sketch.</desc>
<g id="G-Monogram-Redraw---yellow">
	<g id="Page-1">
		<g id="Clip-2">
		</g>
		<defs>
			<filter id="Adobe_OpacityMaskFilter" filterUnits="userSpaceOnUse" x="0" y="0" width="60" height="60">
				<feColorMatrix  type="matrix" values="1 0 0 0 0  0 1 0 0 0  0 0 1 0 0  0 0 0 1 0"/>
			</filter>
		</defs>
		<mask maskUnits="userSpaceOnUse" x="0" y="0" width="60" height="60" id="mask-2_1_">
			<g class="st0">
				<polygon id="path-1_1_" class="st1" points="0,60 60,60 60,0 0,0 				"/>
			</g>
		</mask>
		<path id="Fill-1" class="st2" d="M59.4,24H48.3h-2h0v0h0l0,0l-12,12h12h0.1c-2.4,6.7-8.8,11.5-16.4,11.5
			c-9.6,0-17.4-7.8-17.4-17.4c0-9.6,7.8-17.4,17.4-17.4c7.5,0,13.8,4.7,16.3,11.3l9.4-9.4C50.5,5.8,40.9,0,30,0C13.4,0,0,13.4,0,30
			c0,16.6,13.4,30,30,30c16.6,0,30-13.4,30-30C60,28,59.8,26,59.4,24"/>
	</g>
</g>
<path id="GAMESMITH" class="st3" d="M86.7,23.9c-3.7,0-6.3,2.6-6.3,6.2c0,3.8,2.9,6.2,6.2,6.2c3.4,0,5.8-2.5,5.8-6.1
	c0-0.2,0-0.4,0-0.7H87v2h3c-0.3,1.7-1.4,2.6-3.4,2.6c-2.1,0-3.7-1.5-3.7-4c0-2.3,1.6-3.9,3.8-3.9c1.2,0,2.2,0.5,2.9,1.2l1.7-1.7
	C90.2,24.6,88.6,23.9,86.7,23.9z M102.1,24.1l4.6,11.9h-2.5l-1-2.8h-5.1l-1,2.8h-2.5l4.6-11.9H102.1z M100.7,26.4L98.9,31h3.4
	L100.7,26.4z M123.1,24.1h-3.5l-3.1,8l-3.1-8H110V36h2.4v-8.9l2.9,7.8h2.5l2.9-7.8v9h2.4V24.1z M136.4,33.8h-6.5v-2.7h6.2v-2.2h-6.2
	v-2.6h6.5v-2.2h-8.8V36h8.9V33.8z M149.7,25.2c-1.5-0.9-2.9-1.3-4.5-1.3c-2.5,0-4.7,1.3-4.7,3.8c0,2.2,1.5,3.1,3.6,3.4l0.8,0.1
	c1.7,0.3,2.5,0.6,2.5,1.4c0,0.9-1,1.4-2.3,1.4c-1.5,0-2.9-0.6-3.8-1.3l-1.2,1.9c1.3,1,3.2,1.6,5,1.6c2.6,0,4.9-1.2,4.9-3.9
	c0-2.1-1.7-3-3.8-3.3l-0.7-0.1c-1.4-0.2-2.5-0.5-2.5-1.4c0-0.9,0.9-1.4,2.3-1.4c1.3,0,2.4,0.4,3.4,1L149.7,25.2z M166.9,24.1h-3.5
	l-3.1,8l-3.1-8h-3.5V36h2.4v-8.9l2.9,7.8h2.5l2.9-7.8v9h2.4V24.1z M173.6,24.1h-2.4V36h2.4V24.1z M186.7,24.1H177v2.2h3.7V36h2.4
	v-9.7h3.7V24.1z M192.4,24.1H190V36h2.4v-4.9h5.7V36h2.4V24.1h-2.4v4.8h-5.7V24.1z"/>
</svg>
