<svg id="Layer_1" data-name="Layer 1" xmlns="http://www.w3.org/2000/svg" viewBox="0 0 31.16 23.51"><title>filter-option</title><path d="M31.16,19.49H18.9a3.5,3.5,0,0,0-6.94,0H0v1H12a3.5,3.5,0,0,0,6.94,0H31.16Zm-15.73,3A2.52,2.52,0,1,1,18,20,2.52,2.52,0,0,1,15.43,22.51Z"/><path d="M31.16,3H9.83A3.5,3.5,0,0,0,2.89,3H0V4H2.89A3.5,3.5,0,0,0,9.83,4H31.16ZM6.36,6A2.52,2.52,0,1,1,8.88,3.52,2.52,2.52,0,0,1,6.36,6Z"/><path d="M31.16,11.23H28.59a3.51,3.51,0,0,0-6.81,0H0v1.7H21.78a3.51,3.51,0,0,0,6.81,0h2.57Zm-6,3.37a2.52,2.52,0,1,1,2.52-2.52A2.52,2.52,0,0,1,25.19,14.6Z"/></svg>