<?xml version="1.0" encoding="utf-8"?>
<!-- Generator: Adobe Illustrator 23.0.0, SVG Export Plug-In . SVG Version: 6.00 Build 0)  -->
<svg version="1.1" id="Capa_1" xmlns="http://www.w3.org/2000/svg" xmlns:xlink="http://www.w3.org/1999/xlink" x="0px" y="0px"
	 viewBox="0 0 512 512" style="enable-background:new 0 0 512 512;" xml:space="preserve">
<style type="text/css">
	.st0{fill:#FFFFFF;}
</style>
<path class="st0" d="M507.6,150.6l-76.1-76.1c-5.9-5.9-15.5-5.9-21.4,0.1l-44.2,45c-18.5-9.7-41.9-6.7-57.4,8.8
	c-16,16-18.6,40.3-7.9,59c-26.1,7.7-45.9,6.1-53.9,6.1c-11.6,0-22.4,7-27.1,17.8c-58.7,136.1-73.4,169.6-77.4,179.4
	c-1.2,2.9-4.7,4.1-7.4,2.4c-17.8-11.3-28.6-24.5-31.8-39.1c-4.8-22.3,8.4-49.9,36.4-75.5c21.9-20.1,23.3-40.8,20.6-54.6
	c-7.4-38.2-55.8-75-139.8-106.4c-7.8-2.9-16.5,1-19.4,8.8c-2.9,7.8,1,16.5,8.8,19.4c70.5,26.4,115.7,57.8,120.8,84
	c0.7,3.4,2.7,13.8-11.4,26.7c-36.7,33.6-52.8,70.5-45.5,104.1c9.1,42,51.4,66.1,92.1,79.8c8.7,2.9,18.7,2.1,25.6-1l179-77.3
	c11.1-4.8,18.1-15.8,17.8-27.9c-0.5-15.9,0.1-33.2,6-53c18.7,10.7,43.1,8.1,59-7.9c15.4-15.4,18.4-38.6,8.9-57.1l45.3-43.8
	C513.4,166.3,513.6,156.6,507.6,150.6L507.6,150.6z M431.8,251.7c-7.4,7.4-19.4,7.4-26.8,0c-11.3-11.3-69.2-69.2-75.3-75.3
	c-7.4-7.4-7.4-19.4,0-26.8c7.2-7.2,19.2-7.5,26.8,0c8.4,8.4,66.9,66.9,75.3,75.3C439.3,232.4,439.1,244.4,431.8,251.7L431.8,251.7z
	 M200.3,402.4l68-68c15.6,7.1,35,4.5,48.3-8.7c16.8-16.8,16.8-44.1,0-60.8c-16.9-16.9-44.1-16.7-60.8,0c-13,13-15.9,32.4-8.7,48.3
	L179,381.1l68-157.5c10.9,0.4,40.3,1.4,75.4-11.9l47.3,47.3c-11.2,29.4-12.3,54.4-11.7,75.4L200.3,402.4z M277.1,286.1
	c5-5,13.2-5.1,18.2,0c5,5,5,13.2,0,18.2c-5,5-13.2,5-18.2,0C272.1,299.3,272.1,291.1,277.1,286.1z M442.5,193l-53.7-53.7l32.2-32.7
	l54.5,54.5L442.5,193z"/>
</svg>
