<?xml version="1.0" encoding="utf-8"?>
<!-- Generator: Adobe Illustrator 23.0.0, SVG Export Plug-In . SVG Version: 6.00 Build 0)  -->
<svg version="1.1" id="light" xmlns="http://www.w3.org/2000/svg" xmlns:xlink="http://www.w3.org/1999/xlink" x="0px" y="0px"
	 viewBox="0 0 512 426.7" style="enable-background:new 0 0 512 426.7;" xml:space="preserve">
<style type="text/css">
	.st0{fill:#FFFFFF;}
</style>
<g>
	<path class="st0" d="M256,288c-5.8,0-11.3-1.1-16.4-3L0,205.2V368c0,32.4,26.2,58.7,58.7,58.7h394.7c32.4,0,58.7-26.2,58.7-58.7
		V205.2l-240.9,80.2C267.3,286.9,261.8,288,256,288z"/>
	<path class="st0" d="M453.3,64h-112V42.7c0-23.5-19.1-42.7-42.7-42.7h-85.3c-23.5,0-42.7,19.1-42.7,42.7V64h-112
		C26.2,64,0,90.2,0,122.7v48.9l250.9,83.6c1.7,0.6,3.4,0.9,5.1,0.9s3.4-0.2,5.1-0.9L512,171.5v-48.9C512,90.2,485.8,64,453.3,64z
		 M213.3,64V42.7h85.3V64H213.3z"/>
</g>
</svg>
