<svg id="Слой_1" data-name="Слой 1" xmlns="http://www.w3.org/2000/svg" viewBox="0 0 48.11 45.86"><defs><style>.cls-1{fill:#ffdd02;}</style></defs><title>star</title><path class="cls-1" d="M25,.69,31.59,14a1.05,1.05,0,0,0,.79.58l14.73,2.14a1,1,0,0,1,.58,1.79L37,28.93a1,1,0,0,0-.3.93l2.52,14.67a1.06,1.06,0,0,1-1.53,1.11L24.55,38.71a1.06,1.06,0,0,0-1,0L10.39,45.64a1,1,0,0,1-1.52-1.11l2.51-14.67a1,1,0,0,0-.3-.93L.42,18.54A1,1,0,0,1,1,16.75l14.72-2.14a1.07,1.07,0,0,0,.8-.58L23.11.69A1,1,0,0,1,25,.69Z"/></svg>