<?xml version="1.0" encoding="utf-8"?>
<!-- Generator: Adobe Illustrator 23.0.0, SVG Export Plug-In . SVG Version: 6.00 Build 0)  -->
<svg version="1.1" id="Layer_1" xmlns="http://www.w3.org/2000/svg" xmlns:xlink="http://www.w3.org/1999/xlink" x="0px" y="0px"
	 viewBox="0 0 508 393.8" style="enable-background:new 0 0 508 393.8;" xml:space="preserve">
<style type="text/css">
	.st0{fill:#FFFFFF;}
</style>
<g>
	<path class="st0" d="M489.4,0h-291c-10.3,0-18.6,8.3-18.6,18.6v74.1c0,10.3,8.3,18.6,18.6,18.6h291c10.3,0,18.6-8.3,18.6-18.6V18.6
		C508,8.3,499.7,0,489.4,0z"/>
	<path class="st0" d="M135.5,0H18.6C8.3,0,0,8.3,0,18.6v74.1c0,10.3,8.3,18.6,18.6,18.6h116.9c10.3,0,18.6-8.3,18.6-18.6V18.6
		C154.1,8.3,145.8,0,135.5,0z"/>
	<path class="st0" d="M135.5,141.2H18.6C8.3,141.2,0,149.5,0,159.8v74.1c0,10.3,8.3,18.6,18.6,18.6h116.9c10.3,0,18.6-8.3,18.6-18.6
		v-74.1C154.1,149.6,145.8,141.2,135.5,141.2z"/>
	<path class="st0" d="M135.5,282.5H18.6C8.3,282.5,0,290.8,0,301.1v74.1c0,10.3,8.3,18.6,18.6,18.6h116.9c10.3,0,18.6-8.3,18.6-18.6
		v-74.1C154.1,290.8,145.8,282.5,135.5,282.5z"/>
	<path class="st0" d="M489.4,141.2h-291c-10.3,0-18.6,8.3-18.6,18.6v74.1c0,10.3,8.3,18.6,18.6,18.6h291c10.3,0,18.6-8.3,18.6-18.6
		v-74.1C508,149.6,499.7,141.2,489.4,141.2z"/>
	<path class="st0" d="M489.4,282.5h-291c-10.3,0-18.6,8.3-18.6,18.6v74.1c0,10.3,8.3,18.6,18.6,18.6h291c10.3,0,18.6-8.3,18.6-18.6
		v-74.1C508,290.8,499.7,282.5,489.4,282.5z"/>
</g>
</svg>
