<?xml version="1.0" encoding="utf-8"?>
<!-- Generator: Adobe Illustrator 23.0.0, SVG Export Plug-In . SVG Version: 6.00 Build 0)  -->
<svg version="1.1" id="Layer_1" xmlns="http://www.w3.org/2000/svg" xmlns:xlink="http://www.w3.org/1999/xlink" x="0px" y="0px"
	 viewBox="0 0 17.2 17.4" style="enable-background:new 0 0 17.2 17.4;" xml:space="preserve">
<style type="text/css">
	.st0{fill:#FFFFFF;}
</style>
<title>phone-envelope</title>
<path class="st0" d="M16.5,12.7l-2.3-2.3c-0.6-0.6-1.6-0.6-2.2,0c-0.2,0.2-0.3,0.4-0.4,0.6c-0.3,0.7-1.1,1.2-1.8,1
	c-2-0.7-3.6-2.3-4.3-4.3C5.2,6.8,5.7,6,6.4,5.8c0.8-0.3,1.2-1.1,1-2C7.3,3.6,7.2,3.4,7,3.2L4.7,0.9c-0.6-0.6-1.6-0.6-2.2,0L0.9,2.5
	c-1.6,1.7,0.2,6,4.1,10s8.3,5.7,9.9,4.1l1.6-1.6C17.1,14.3,17.1,13.3,16.5,12.7z"/>
</svg>
