<svg id="Layer_1" data-name="Layer 1" xmlns="http://www.w3.org/2000/svg" viewBox="0 0 18.02 14.24"><title>phone-envelope</title><path d="M9.14,9.82A2.21,2.21,0,0,0,6.93,12a.59.59,0,0,0,0,.14A8.72,8.72,0,0,1,2.11,7h.1A2.21,2.21,0,1,0,0,4.8a2.12,2.12,0,0,0,.2.9h0c0,.08,1.35,7.27,8.25,8.41a2.08,2.08,0,0,0,.71.13,2.21,2.21,0,0,0,0-4.42Z"/><polygon points="5.08 0.64 5.08 7.98 10.84 4.31 5.08 0.64"/><polygon points="17.6 0 5.56 0 11.58 3.83 17.6 0"/><polygon points="18.02 7.94 18.02 0.68 12.32 4.31 18.02 7.94"/><polygon points="11.58 4.78 5.5 8.65 17.66 8.65 11.58 4.78"/></svg>