<?xml version="1.0" encoding="utf-8"?>
<!-- Generator: Adobe Illustrator 23.0.0, SVG Export Plug-In . SVG Version: 6.00 Build 0)  -->
<svg version="1.1" id="Layer_1" xmlns="http://www.w3.org/2000/svg" xmlns:xlink="http://www.w3.org/1999/xlink" x="0px" y="0px"
	 viewBox="0 0 333.3 393.8" style="enable-background:new 0 0 333.3 393.8;" xml:space="preserve">
<style type="text/css">
	.st0{fill:#f8e81c;}
</style>
<g>
	<g>
		<g>
			<path class="st0" d="M280.5,59C246.5,21,201.1,0,152.8,0v36.7c39.5,0,76.6,17.1,104.5,48.3c27.8,31.1,43.2,72.6,43.2,116.7h32.8
				C333.3,147.7,314.6,97,280.5,59z"/>
		</g>
	</g>
	<g>
		<g>
			<path class="st0" d="M234.1,110.9c-21.7-24.2-50.5-37.6-81.3-37.6V110c22,0,42.6,9.5,58,26.8s24,40.3,24,64.8h32.8
				C267.7,167.3,255.8,135.1,234.1,110.9z"/>
		</g>
	</g>
	<g>
		<g>
			<path class="st0" d="M215.8,394.9l-9.6-49.4c-57.5,3.5-122.4-14.7-160.4-42.4l-30.6,91.8H215.8z"/>
		</g>
	</g>
	<path class="st0" d="M181.8,187.5l-7.7-7l0,0l-19.5-18.2l-0.1,0.2L36.4,53.8L27.8,67c-42.4,65.1-35.6,151.5,15.3,209.3l0,0
		c60.5,68.4,164.5,78.5,236.6,22.4l11.8-9.2L181.8,187.5z"/>
	<circle class="st0" cx="180.8" cy="164.2" r="18.9"/>
</g>
</svg>
