<?xml version="1.0" encoding="UTF-8"?>
<svg width="23px" height="23px" viewBox="0 0 23 23" version="1.1" xmlns="http://www.w3.org/2000/svg" xmlns:xlink="http://www.w3.org/1999/xlink">
    <!-- Generator: Sketch 43.2 (39069) - http://www.bohemiancoding.com/sketch -->
    <title>globe/bigger</title>
    <desc>Created with Sketch.</desc>
    <defs></defs>
    <g id="Symbols" stroke="none" stroke-width="1" fill="none" fill-rule="evenodd">
        <g id="fileter-bar/expanded" transform="translate(-464.000000, -81.000000)" stroke="#979797">
            <g id="globe/bigger" transform="translate(463.000000, 81.000000)">
                <g id="globe">
                    <g id="thin-0543_world_earth_worldwide_location_travel" stroke-width="0.95304">
                        <g id="Group" transform="translate(0.960000, 0.000000)">
                            <ellipse id="Oval" cx="11.506752" cy="11.6119771" rx="10.82688" ry="10.8698438"></ellipse>
                            <path d="M4.454784,5.34017943 C4.454784,5.34017943 3.007488,8.67544229 4.759488,8.05455619 C6.054144,7.59587924 6.168384,7.06086857 6.168384,7.06086857 L6.92976,5.72271543 C6.92976,5.72271543 7.044,7.59587924 7.196352,7.86324 C7.348704,8.13108267 7.95792,8.89567276 8.186304,7.82516952 C8.606112,5.85735962 8.676864,5.30268724 9.40032,5.30268724 C10.123776,5.30268724 11.61312,4.72864229 11.765568,6.48711276 C11.91792,8.24567962 11.613312,7.21334324 10.661376,7.67230933 C9.709344,8.13098629 9.480864,9.73659657 10.356672,9.92762362 C10.895136,10.0452084 11.850816,10.3938183 12.507264,10.644987 C14.633664,11.4585387 14.697408,13.812547 14.697408,15.8910987 C14.697408,15.8910987 14.735616,18.2995623 15.611328,17.726192 C16.486944,17.1528217 18.885792,13.4063013 18.390816,11.9920072 C17.89584,10.5775204 17.85792,10.4245638 18.771648,9.92762362 C19.685376,9.43068343 20.332704,8.8190499 20.294592,8.13098629" id="Shape"></path>
                            <path d="M2.665152,14.3621112 C2.665152,14.3621112 2.931744,11.3284244 3.54096,11.8129314 C4.150176,12.297824 4.41648,12.297824 4.949664,12.8331238 C5.482848,13.3681345 7.76736,13.6740476 7.005792,14.3621112 C6.24432,15.0503676 5.951616,15.0105623 4.912416,18.0701756" id="Shape"></path>
                        </g>
                    </g>
                </g>
            </g>
        </g>
    </g>
</svg>